<svg width="127" height="47" viewBox="0 0 127 47" fill="none" xmlns="http://www.w3.org/2000/svg">
<g clip-path="url(#clip0)">
<path d="M15.2549 0.382211C10.0517 1.83451 6.7701 5.06513 5.52842 9.95553C4.58238 13.5714 4.84846 16.476 6.38577 19.4399C6.71097 20.1216 8.54394 22.3149 10.3769 24.271C14.0132 28.1241 14.9888 29.6653 14.9888 31.6511C14.9888 36.3636 9.28301 36.8082 2.98593 32.5995L2.09903 32.0068L1.56688 35.0299C1.3008 36.6896 0.827786 39.3571 0.532147 40.9576L0 43.8622L1.35993 44.5439C4.46413 46.1148 8.95783 46.9743 12.4463 46.7075C22.5571 45.9369 28.0264 40.0684 27.6421 30.4359C27.4647 26.0197 26.6665 24.4489 22.2023 19.7956C20.3694 17.8987 18.6547 15.9129 18.4182 15.4091C17.6496 13.9568 17.7974 12.5045 18.8321 11.4671C19.6895 10.6076 19.8077 10.5779 21.9363 10.6965C23.7693 10.7854 24.4788 10.9928 26.5187 12.0302C28.056 12.8305 28.9725 13.1269 29.0316 12.9194C29.0908 12.7119 29.4159 10.6965 29.7707 8.41428C30.1254 6.13212 30.4802 3.84994 30.5394 3.34608C30.6872 2.48656 30.628 2.39765 28.9725 1.65668C28.0264 1.24174 26.3413 0.6786 25.2475 0.441488C22.8232 -0.121643 17.2061 -0.151284 15.2549 0.382211Z" fill="black"/>
<path d="M33.7618 1.21211C33.614 1.74561 32.1357 11.1115 32.1357 11.6746C32.1357 12.0599 32.727 12.1191 35.8608 12.1191H39.5858L39.4084 12.9194C39.2606 13.69 39.0241 15.2609 37.9007 22.3445C37.6642 23.8857 37.2503 26.405 37.0138 27.8869C35.6243 36.6304 35.0626 40.3649 34.7965 42.2025C34.6191 43.3287 34.4121 44.5735 34.3234 44.9292L34.2052 45.6109H40.5023H46.829L47.775 39.6239C48.3071 36.3044 49.1349 31.1472 49.6079 28.1241C50.0809 25.101 50.8496 20.2994 51.293 17.4541L52.1209 12.2673L55.8754 12.1784C57.9449 12.1488 59.63 12.0006 59.63 11.8821C59.63 11.6746 60.9604 3.3461 61.256 1.6567L61.4039 0.856445H47.6271C36.8955 0.856445 33.8504 0.945365 33.7618 1.21211Z" fill="black"/>
<path d="M66.9618 7.76224C63.7985 16.2093 56.7328 35.0299 54.4859 40.9576C53.5695 43.3584 52.8303 45.4034 52.8303 45.4627C52.8303 45.5516 55.698 45.5813 59.2161 45.5516L65.6314 45.4627L66.5775 42.3506L67.4939 39.2386L71.2483 39.1497L75.0034 39.0608V42.3506V45.6109H81.3006H87.597L87.3609 42.5581C86.7993 34.4371 86.5034 30.258 85.9419 22.3445C85.6165 17.6023 85.1435 10.9929 84.9067 7.6437C84.6705 4.29454 84.4639 1.38994 84.4639 1.21211C84.4639 0.945365 82.4532 0.856445 77.0135 0.856445H69.5342L66.9618 7.76224ZM75.2986 22.0482V29.9024H72.7565C70.2728 29.9024 70.2433 29.9024 70.4204 29.2207C70.5392 28.865 71.2779 26.4939 72.0467 23.9747C72.8451 21.4553 73.8501 18.2247 74.2641 16.7724C74.7075 15.3498 75.1215 14.1938 75.1805 14.1938C75.2396 14.1938 75.2986 17.7209 75.2986 22.0482Z" fill="black"/>
<path d="M96.7328 1.2121C96.6731 1.41957 96.3484 3.31645 96.023 5.45044C95.4614 8.97746 94.8697 12.6823 93.3326 22.3445C91.7063 32.481 91.2038 35.7116 90.6423 39.2386C90.3169 41.3726 89.9331 43.6547 89.8144 44.3365L89.5487 45.6109H94.9884C97.974 45.6109 100.428 45.4924 100.428 45.3442C100.428 45.2256 100.635 43.9808 100.842 42.6174C101.078 41.254 101.906 36.5118 102.645 32.1253C103.384 27.7091 104.094 23.8857 104.212 23.5893C104.419 23.0558 104.715 24.5674 107.76 41.2244L108.558 45.6109H114.352H120.147L120.502 43.2991C120.709 42.0543 121.122 39.4164 121.418 37.4603C121.744 35.5041 122.246 32.155 122.601 30.0506C122.926 27.9166 123.606 23.6486 124.079 20.5662C124.552 17.4541 125.232 13.1862 125.557 11.0818C125.882 8.9478 126.355 6.04321 126.592 4.59092C127.272 0.441496 127.833 0.856436 121.891 0.856436C116.037 0.856436 116.629 0.589685 116.126 3.67212C115.032 10.7261 112.549 24.3599 112.401 24.2117C112.342 24.1524 111.544 19.5881 110.627 14.0456C109.74 8.50324 108.853 3.25717 108.676 2.39765L108.38 0.856436H102.616C98.2698 0.856436 96.8213 0.945349 96.7328 1.2121Z" fill="black"/>
</g>
<defs>
<clipPath id="clip0">
<rect width="127" height="47" fill="white"/>
</clipPath>
</defs>
</svg>
