<svg width="14" height="9" viewBox="0 0 14 9" fill="none" xmlns="http://www.w3.org/2000/svg">
<path d="M0.588956 1.81796L0.588956 1.81796C0.470338 1.69231 0.470364 1.47736 0.588937 1.35177L0.588956 1.35175L1.31565 0.581958L0.952066 0.238729L1.31565 0.581958C1.41868 0.472821 1.573 0.47271 1.67614 0.581451C1.67614 0.581451 1.67614 0.581452 1.67614 0.581452L6.63724 5.81215L7.00002 6.19464L7.3628 5.81214L12.3239 0.58145C12.427 0.472709 12.5813 0.472821 12.6843 0.581958L13.411 1.35175C13.5297 1.4774 13.5296 1.69235 13.4111 1.81794L13.411 1.81796L7.18053 8.41804C7.18053 8.41805 7.18052 8.41806 7.18051 8.41806C7.07734 8.52732 6.92267 8.52731 6.8195 8.41804L0.588956 1.81796Z" fill="#222222" stroke="#222222"/>
</svg>
